<svg width="54" height="58" viewBox="0 0 54 58" fill="none" xmlns="http://www.w3.org/2000/svg">
<path d="M52.3375 17.0868L50.3828 19.7048L48.0877 20.0429L41.4627 57.3672L44.3947 53.4402L45.8398 53.6934L52.3375 17.0868Z" fill="url(#paint0_linear)"/>
<path d="M14.0425 10.379L11.9072 12.404L7.62506 12.9553L21.3535 15.36C21.5972 14.3753 22.0312 13.1386 22.667 11.8897L14.0425 10.379Z" fill="url(#paint1_linear)"/>
<path d="M21.3535 15.36L37.2495 18.1444C37.4932 17.1597 37.6821 15.8801 37.6917 14.5214L25.6032 12.404L22.667 11.8897C22.0312 13.1386 21.5972 14.3753 21.3535 15.36Z" fill="url(#paint2_linear)"/>
<path d="M37.2495 18.1444L48.0877 20.0429L50.3828 19.7048L52.3375 17.0868L40.7767 15.0618L37.6917 14.5214C37.6821 15.8801 37.4932 17.1597 37.2495 18.1444Z" fill="url(#paint3_linear)"/>
<path d="M7.62506 12.9553L1.00002 50.2796L41.4627 57.3672L48.0877 20.0429L37.2495 18.1444L21.3535 15.36L7.62506 12.9553Z" fill="url(#paint4_linear)"/>
<path d="M7.62506 12.9553L1.00002 50.2796L41.4627 57.3672M7.62506 12.9553L21.3535 15.36M7.62506 12.9553L11.9072 12.404L14.0425 10.379L22.667 11.8897M48.0877 20.0429L41.4627 57.3672M48.0877 20.0429L37.2495 18.1444M48.0877 20.0429L50.3828 19.7048L52.3375 17.0868M52.3375 17.0868L45.8398 53.6934L44.3947 53.4402L41.4627 57.3672M52.3375 17.0868L40.7767 15.0618M21.3535 15.36L37.2495 18.1444M21.3535 15.36C21.5972 14.3753 22.0312 13.1386 22.667 11.8897M37.2495 18.1444C37.4932 17.1597 37.6821 15.8801 37.6917 14.5214M25.6032 12.404C26.4386 9.09655 29.529 2.87838 35.2075 4.4651C40.886 6.05183 41.2863 12.1907 40.7767 15.0618M25.6032 12.404L22.667 11.8897M25.6032 12.404L37.6917 14.5214M40.7767 15.0618L37.6917 14.5214M22.667 11.8897C24.3213 8.64025 27.3421 5.30765 31.9351 6.11217C36.5281 6.9167 37.7167 10.9866 37.6917 14.5214" stroke="#B4B4B4" stroke-width="0.4"/>
<path d="M21.5524 15.3705C22.4709 12.0415 25.7774 5.57077 31.6557 6.31979C37.534 7.06882 37.5748 14.5382 36.8604 18.1793" stroke="black" stroke-width="0.5"/>
<path d="M25.1577 12.0446C26.0403 8.95253 29.1956 2.76848 34.756 4.04794C40.3163 5.3274 41.0445 11.6181 40.7135 14.6035" stroke="black" stroke-width="0.5"/>
<path d="M11.7658 34.6539C11.9756 34.7298 22.6816 35.9939 22.2699 30.6315C22.0802 29.852 21.1666 28.1945 19.0294 27.801C18.069 27.6117 16.358 27.309 14.5058 27.8242C13.8628 28.0657 12.8634 28.4153 11.9272 29.0247C11.252 29.4642 9.34855 30.2252 7.39547 34.2586C5.3342 38.5155 9.63521 42.4148 13.8159 42.0305C14.5476 41.9791 16.7254 41.6133 19.5824 40.5608L20.0425 39.3053C18.6866 39.763 15.639 40.5569 14.2961 40.0713C12.6173 39.4644 10.6157 37.7928 11.7658 34.6539Z" fill="white" stroke="#DCDCDC" stroke-width="0.3"/>
<path d="M11.4778 32.8753C11.9136 32.3703 13.5641 28.5501 17.1716 28.9711C18.2027 29.123 19.5947 30.0239 16.9142 32.4116C16.5022 32.8516 14.8382 33.5603 11.4778 32.8753Z" fill="url(#paint5_linear)" stroke="#DCDCDC" stroke-width="0.3"/>
<path d="M23.4559 44.0439C23.7032 42.6505 26.1426 29.3985 27.2009 22.9451L33.4224 33.5334L42.4074 25.6087L38.6623 46.7075L35.8745 46.2191L38.1954 33.1438L32.684 37.6937L28.5646 31.4569L26.2438 44.5322L23.4559 44.0439Z" fill="white" stroke="#B4B4B4" stroke-width="0.3"/>
<defs>
<linearGradient id="paint0_linear" x1="31.9623" y1="3.86018" x2="23.1517" y2="54.1598" gradientUnits="userSpaceOnUse">
<stop stop-color="#29FFCC"/>
<stop offset="1" stop-color="#127960"/>
</linearGradient>
<linearGradient id="paint1_linear" x1="31.9623" y1="3.86018" x2="23.1517" y2="54.1598" gradientUnits="userSpaceOnUse">
<stop stop-color="#29FFCC"/>
<stop offset="1" stop-color="#127960"/>
</linearGradient>
<linearGradient id="paint2_linear" x1="31.9623" y1="3.86018" x2="23.1517" y2="54.1598" gradientUnits="userSpaceOnUse">
<stop stop-color="#29FFCC"/>
<stop offset="1" stop-color="#127960"/>
</linearGradient>
<linearGradient id="paint3_linear" x1="31.9623" y1="3.86018" x2="23.1517" y2="54.1598" gradientUnits="userSpaceOnUse">
<stop stop-color="#29FFCC"/>
<stop offset="1" stop-color="#127960"/>
</linearGradient>
<linearGradient id="paint4_linear" x1="31.9623" y1="3.86018" x2="23.1517" y2="54.1598" gradientUnits="userSpaceOnUse">
<stop stop-color="#29FFCC"/>
<stop offset="1" stop-color="#127960"/>
</linearGradient>
<linearGradient id="paint5_linear" x1="20.1095" y1="21.8069" x2="10.9405" y2="43.1767" gradientUnits="userSpaceOnUse">
<stop stop-color="#29FFCC"/>
<stop offset="1" stop-color="#127960"/>
</linearGradient>
</defs>
</svg>
