<svg width="50" height="48" viewBox="0 0 50 48" fill="none" xmlns="http://www.w3.org/2000/svg">
<path d="M49.7115 8.97522C49.4253 8.56501 48.9648 8.31146 48.4645 8.29009L17.449 6.95318C16.5591 6.91424 15.8154 7.60127 15.7774 8.48702C15.7396 9.37244 16.4255 10.1206 17.3111 10.1586L46.2268 11.4051L40.5414 29.1441H15.2405L10.6695 4.25542C10.5691 3.70994 10.1946 3.25487 9.67805 3.05223L2.19157 0.1111C1.36647 -0.211938 0.435398 0.193341 0.111354 1.01744C-0.212131 1.84198 0.193036 2.77361 1.01769 3.09766L7.67437 5.71273L12.326 31.0382C12.4662 31.7995 13.1298 32.3525 13.9042 32.3525H14.6758L12.9138 37.2467C12.7663 37.6567 12.8271 38.112 13.0781 38.4682C13.3287 38.8245 13.7363 39.0364 14.1715 39.0364H15.4074C14.6415 39.8887 14.1715 41.0109 14.1715 42.2449C14.1715 44.8988 16.3309 47.0577 18.9843 47.0577C21.6376 47.0577 23.797 44.8988 23.797 42.2449C23.797 41.011 23.327 39.8887 22.5613 39.0364H33.0544C32.2882 39.8887 31.8183 41.0109 31.8183 42.2449C31.8183 44.8988 33.9771 47.0577 36.631 47.0577C39.285 47.0577 41.4438 44.8988 41.4438 42.2449C41.4438 41.011 40.9739 39.8887 40.2083 39.0364H41.7112C42.4497 39.0364 43.0481 38.4379 43.0481 37.6996C43.0481 36.9611 42.4496 36.3627 41.7112 36.3627H16.0737L17.5173 32.3521H41.7111C42.4088 32.3521 43.0261 31.9014 43.2386 31.2376L49.923 10.3821C50.0765 9.90606 49.9978 9.38564 49.7115 8.97522ZM18.9844 44.3845C17.8047 44.3845 16.8453 43.4252 16.8453 42.2455C16.8453 41.0658 17.8047 40.1064 18.9844 40.1064C20.1641 40.1064 21.1233 41.0658 21.1233 42.2455C21.1233 43.4252 20.1641 44.3845 18.9844 44.3845ZM36.631 44.3845C35.4513 44.3845 34.4921 43.4252 34.4921 42.2455C34.4921 41.0658 35.4513 40.1064 36.631 40.1064C37.8107 40.1064 38.77 41.0658 38.77 42.2455C38.77 43.4252 37.8107 44.3845 36.631 44.3845Z" fill="#B4B4B4"/>
</svg>
