<svg width="27" height="27" viewBox="0 0 27 27" fill="none" xmlns="http://www.w3.org/2000/svg">
<g clip-path="url(#clip0)">
<path d="M0.255363 25.5311L7.22632 18.6715C5.40085 16.6882 4.27922 14.0652 4.27922 11.1789C4.28011 5.00458 9.36573 0 15.6396 0C21.9136 0 26.9992 5.00458 26.9992 11.1789C26.9992 17.3533 21.9136 22.3578 15.6396 22.3578C12.9289 22.3578 10.4426 21.4202 8.4897 19.8614L1.4917 26.748C1.15072 27.084 0.597137 27.084 0.256158 26.748C-0.0856162 26.4122 -0.0856164 25.867 0.255363 25.5311ZM15.6396 20.6379C20.9481 20.6379 25.2514 16.403 25.2514 11.1789C25.2514 5.95486 20.9481 1.71994 15.6396 1.71994C10.3312 1.71994 6.02793 5.95486 6.02793 11.1789C6.02793 16.403 10.3312 20.6379 15.6396 20.6379Z" fill="#B4B4B4"/>
</g>
<defs>
<clipPath id="clip0">
<rect width="27" height="27" fill="white" transform="matrix(-1 0 0 1 27 0)"/>
</clipPath>
</defs>
</svg>
